<?xml version="1.0" encoding="utf-8"?>
<!-- Generator: Adobe Illustrator 22.1.0, SVG Export Plug-In . SVG Version: 6.00 Build 0)  -->
<svg version="1.1" id="Layer_1" xmlns="http://www.w3.org/2000/svg" xmlns:xlink="http://www.w3.org/1999/xlink" x="0px" y="0px"
	 viewBox="0 0 440.8 112" style="enable-background:new 0 0 440.8 112;" xml:space="preserve">
<style type="text/css">
	.st0{fill:#FFFFFF;}
</style>
<path class="st0" d="M48.3-0.1c7.2,0,14,1.2,20.2,3.5s11.6,5.8,16.2,10.4s8.1,10.4,10.7,17.3s3.8,15,3.8,24.3c0,8.2-1,15.7-3.1,22.6
	s-5.3,12.9-9.5,17.9s-9.5,9-15.9,11.9c-6.3,2.9-13.8,4.3-22.4,4.3H-0.1V-0.1H48.3z M46.6,91.3c3.6,0,7-0.6,10.4-1.7
	c3.3-1.2,6.3-3.1,9-5.7c2.6-2.7,4.7-6.1,6.3-10.4c1.6-4.3,2.4-9.5,2.4-15.7c0-5.7-0.5-10.8-1.6-15.3c-1.1-4.6-2.9-8.5-5.4-11.7
	s-5.8-5.7-10-7.5c-4.1-1.7-9.2-2.6-15.3-2.6H24.6v70.7L46.6,91.3L46.6,91.3z"/>
</svg>
