<?xml version="1.0" encoding="utf-8"?>
<!-- Generator: Adobe Illustrator 22.1.0, SVG Export Plug-In . SVG Version: 6.00 Build 0)  -->
<svg version="1.1" id="Layer_1" xmlns="http://www.w3.org/2000/svg" xmlns:xlink="http://www.w3.org/1999/xlink" x="0px" y="0px"
	 viewBox="0 0 43.9 43.9" style="enable-background:new 0 0 43.9 43.9;" xml:space="preserve">
<style type="text/css">
	.st0{fill:#FFFFFF;}
</style>
<circle cx="22" cy="22" r="22"/>
<g>
	<path class="st0" d="M7.2,30.9c0-6.1,0-12.1,0-18.2c0.2,0,0.3,0,0.5,0c3,0,5.9,0,8.9,0c1.1,0,2.2,0.2,3.2,0.8
		c1.9,1.1,2.7,3.9,1.7,5.9c-0.3,0.7-0.9,1.2-1.6,1.5c-0.1,0.1-0.3,0.1-0.5,0.2c1.9,0.5,2.8,1.4,3,3.6c0.1,0.8,0.1,1.7-0.1,2.4
		c-0.5,2.3-2.1,3.3-4.2,3.8c-0.4,0.1-0.9,0.1-1.3,0.1c-3.1,0-6.1,0-9.2,0C7.5,30.9,7.4,30.9,7.2,30.9z M11.4,22.8c0,1.6,0,3.2,0,4.8
		c1.9,0,3.7,0,5.6,0c0.8,0,1.3-0.6,1.5-1.3c0.2-0.7,0.2-1.5-0.1-2.2c-0.3-0.7-0.8-1.2-1.5-1.3C15.1,22.8,13.2,22.8,11.4,22.8z
		 M11.4,19.9c1.8,0,3.6,0,5.4,0c0.6,0,1-0.4,1.1-0.9c0.1-0.6,0.2-1.2,0.1-1.8c-0.1-0.8-0.6-1.2-1.5-1.2c-1.3,0-2.6,0-3.8,0
		c-0.4,0-0.8,0-1.2,0C11.4,17.2,11.4,18.6,11.4,19.9z"/>
	<path class="st0" d="M36.7,25.2c-3.3,0-6.4,0-9.5,0c-0.3,1.2,0.6,2.6,1.8,3c1,0.3,1.9,0.3,2.9-0.1c0.8-0.3,1.2-0.8,1.4-1.7
		c1.1,0,2.1,0,3.2,0c0,1.4-0.4,2.6-1.5,3.5c-0.8,0.7-1.8,1-2.8,1.2c-1.4,0.3-2.9,0.2-4.3-0.1c-2.2-0.6-3.7-2-4.3-4.2
		c-0.7-2.2-0.4-4.4,0.7-6.4c1.2-2.1,3.1-3,5.4-3.1c0.8,0,1.7,0,2.5,0.2c2.5,0.6,3.8,2.3,4.2,4.7C36.6,23.2,36.6,24.2,36.7,25.2z
		 M27.1,22.7c2,0,4,0,5.9,0c0.1-1.5-0.9-2.7-2.4-2.8C28.8,19.8,27.3,21,27.1,22.7z"/>
	<path class="st0" d="M26.3,15.9c0-0.7,0-1.4,0-2.2c2.5,0,5,0,7.5,0c0,0.7,0,1.4,0,2.2C31.3,15.9,28.8,15.9,26.3,15.9z"/>
</g>
</svg>
