<?xml version="1.0" encoding="utf-8"?>
<!-- Generator: Adobe Illustrator 22.1.0, SVG Export Plug-In . SVG Version: 6.00 Build 0)  -->
<svg version="1.1" id="Layer_1" xmlns="http://www.w3.org/2000/svg" xmlns:xlink="http://www.w3.org/1999/xlink" x="0px" y="0px"
	 viewBox="0 0 208 208" style="enable-background:new 0 0 208 208;" xml:space="preserve">
<style type="text/css">
	.st0{fill:none;stroke:#000000;stroke-width:14.7143;stroke-miterlimit:10;}
	.st1{fill:#FFFFFF;}
</style>
<g>
	<circle class="st0" cx="104" cy="104" r="95.2"/>
	<path class="st0" d="M104,9.3c52.2,0,94.7,42.5,94.7,94.7s-42.5,94.7-94.7,94.7S9.3,156.2,9.3,104S51.8,9.3,104,9.3 M104,8.4
		C51.2,8.4,8.4,51.2,8.4,104s42.9,95.6,95.6,95.6s95.6-42.9,95.6-95.6S156.8,8.4,104,8.4L104,8.4z"/>
</g>
<g>
	<g>
		<path class="st1" d="M658.3,201.9c1.9,0,1.9-3,0-3C656.3,198.9,656.3,201.9,658.3,201.9L658.3,201.9z"/>
	</g>
</g>
</svg>
