<?xml version="1.0" encoding="utf-8"?>
<!-- Generator: Adobe Illustrator 22.1.0, SVG Export Plug-In . SVG Version: 6.00 Build 0)  -->
<svg version="1.1" id="Layer_1" xmlns="http://www.w3.org/2000/svg" xmlns:xlink="http://www.w3.org/1999/xlink" x="0px" y="0px"
	 viewBox="0 0 44.1 44.1" style="enable-background:new 0 0 44.1 44.1;" xml:space="preserve">
<style type="text/css">
	.st0{fill:#FFFFFF;}
</style>
<path d="M22,0C9.7,0,0,9.7,0,22c0,12.4,9.7,22.1,22.1,22.1c12.2,0,22-9.8,22-22.1C44.1,9.7,34.3,0,22,0z M33.2,30.5
	c0,1.9-0.9,2.7-2.7,2.7h-17c-1.9,0-2.7-0.8-2.7-2.7v-17c0-1.9,0.8-2.7,2.7-2.7h17c1.9,0,2.7,0.8,2.7,2.7
	C33.3,19.2,33.3,24.8,33.2,30.5z"/>
<path class="st0" d="M33.2,13.5c0-1.9-0.8-2.7-2.7-2.7h-17c-1.9,0-2.7,0.8-2.7,2.7v17c0,1.9,0.8,2.7,2.7,2.7h17
	c1.8,0,2.7-0.8,2.7-2.7C33.3,24.8,33.3,19.2,33.2,13.5z M22,17.4c2.4,0,4.5,2.1,4.6,4.5c0.1,2.5-2.1,4.7-4.6,4.7s-4.5-2.1-4.5-4.6
	S19.6,17.4,22,17.4z M30.9,28.9c0,1.5-0.7,1.9-2,1.9H22c-2.3,0-4.6-0.1-6.9,0c-1.3,0-1.9-0.4-1.9-1.8v-7.9c0-0.7-0.1-1.4,1-1.4
	c1.2,0,1,0.8,0.9,1.5c-0.7,4.8,4.3,9.1,9.4,7.2c2.9-1,4.6-3.7,4.5-7.1c0-0.5-0.6-1.4,0.7-1.5c1.1,0,1.2,0.6,1.2,1.5
	C30.9,23.9,30.8,26.5,30.9,28.9z M28.8,16.7c-1.6,0-2-0.8-1.8-2.2c-0.3-1.7,0.7-1.9,2-1.9c1.6,0,1.9,0.7,1.9,2.2
	C30.9,16.4,30.2,16.7,28.8,16.7z"/>
<path d="M30.9,28.9c0,1.5-0.7,1.9-2,1.9H22c-2.3,0-4.6-0.1-6.9,0c-1.3,0-1.9-0.4-1.9-1.8v-7.9c0-0.7-0.1-1.4,1-1.4
	c1.2,0,1,0.8,0.9,1.5c-0.7,4.8,4.3,9.1,9.4,7.2c2.9-1,4.6-3.7,4.5-7.1c0-0.5-0.6-1.4,0.7-1.5c1.1,0,1.2,0.6,1.2,1.5
	C30.9,23.9,30.8,26.5,30.9,28.9z"/>
<path d="M26.6,21.9c0.1,2.5-2.1,4.7-4.6,4.7s-4.5-2.1-4.5-4.6s2.1-4.6,4.5-4.6S26.5,19.5,26.6,21.9z"/>
<path d="M30.9,14.8c0,1.6-0.7,1.9-2.1,1.9c-1.6,0-2-0.8-1.8-2.2c-0.3-1.7,0.7-1.9,2-1.9C30.6,12.6,30.9,13.3,30.9,14.8z"/>
</svg>
