<?xml version="1.0" encoding="utf-8"?>
<!-- Generator: Adobe Illustrator 22.1.0, SVG Export Plug-In . SVG Version: 6.00 Build 0)  -->
<svg version="1.1" id="Layer_1" xmlns="http://www.w3.org/2000/svg" xmlns:xlink="http://www.w3.org/1999/xlink" x="0px" y="0px"
	 viewBox="0 0 44.1 44.1" style="enable-background:new 0 0 44.1 44.1;" xml:space="preserve">
<style type="text/css">
	.st0{fill:#FFFFFF;}
</style>
<path d="M22,0C9.8,0,0,9.7,0,22c0,12.3,9.7,22.1,21.9,22.1c12.3,0,22.1-9.7,22.2-21.9C44.1,9.8,34.4,0,22,0z M14.9,32.5
	c-3.6,0-3.6,0.1-3.6-3.5V19c0-1.2,0.3-1.7,1.6-1.6c3.4,0,3.4,0,3.4,3.4V25c0,2-0.1,4,0,5.9C16.4,32.1,16.2,32.5,14.9,32.5z M14,15.4
	c-1.6,0.1-2.8-1-2.9-2.5c-0.1-1.6,1.1-2.8,2.7-2.8c1.6,0,2.7,1,2.8,2.5C16.7,14.2,15.6,15.3,14,15.4z M33,32.5
	c-3.6,0-3.6,0.1-3.6-3.5v-5.2c-0.1-1.6-0.7-2.8-2.5-2.8c-1.7,0-2.6,1.1-2.7,2.7c-0.1,2.4-0.1,4.7,0,7.1c0,1.2-0.3,1.7-1.6,1.7
	c-3.4,0-3.4,0-3.4-3.3c0-3.5,0.1-6.9,0-10.4c0-1.1,0.3-1.5,1.4-1.4c0.6,0.1,1.3,0.1,1.9,0c1.2-0.1,1.9,0.2,1.5,2
	c2.3-2.5,4.6-3,7.1-1.9c2.4,1.1,3.2,3.2,3.2,5.7c0.1,2.6,0,5.1,0.1,7.7C34.5,32,34.3,32.5,33,32.5z"/>
<path class="st0" d="M16.6,12.6c0.1,1.6-1,2.7-2.6,2.8c-1.6,0.1-2.8-1-2.9-2.5c-0.1-1.6,1.1-2.8,2.7-2.8
	C15.4,10.1,16.5,11.1,16.6,12.6z"/>
<path class="st0" d="M33,32.5c-3.6,0-3.6,0.1-3.6-3.5v-5.2c-0.1-1.6-0.7-2.8-2.5-2.8c-1.7,0-2.6,1.1-2.7,2.7c-0.1,2.4-0.1,4.7,0,7.1
	c0,1.2-0.3,1.7-1.6,1.7c-3.4,0-3.4,0-3.4-3.3c0-3.5,0.1-6.9,0-10.4c0-1.1,0.3-1.5,1.4-1.4c0.6,0.1,1.3,0.1,1.9,0
	c1.2-0.1,1.9,0.2,1.5,2c2.3-2.5,4.6-3,7.1-1.9c2.4,1.1,3.2,3.2,3.2,5.7c0.1,2.6,0,5.1,0.1,7.7C34.5,32,34.3,32.5,33,32.5z"/>
<path class="st0" d="M14.9,32.5c-3.6,0-3.6,0.1-3.6-3.5V19c0-1.2,0.3-1.7,1.6-1.6c3.4,0,3.4,0,3.4,3.4V25c0,2-0.1,4,0,5.9
	C16.4,32.1,16.2,32.5,14.9,32.5z"/>
</svg>
