<?xml version="1.0" encoding="utf-8"?>
<!-- Generator: Adobe Illustrator 22.1.0, SVG Export Plug-In . SVG Version: 6.00 Build 0)  -->
<svg version="1.1" id="Layer_1" xmlns="http://www.w3.org/2000/svg" xmlns:xlink="http://www.w3.org/1999/xlink" x="0px" y="0px"
	 viewBox="0 0 208 208" style="enable-background:new 0 0 208 208;" xml:space="preserve">
<style type="text/css">
	.st0{fill:#FFFFFF;}
	.st1{fill:none;}
</style>
<g>
	<path class="st0" d="M104,16c48.5,0,88,39.5,88,88s-39.5,88-88,88s-88-39.5-88-88S55.5,16,104,16 M104,0C46.6,0,0,46.6,0,104
		c0,57.4,46.6,104,104,104s104-46.6,104-104C208,46.6,161.4,0,104,0L104,0z"/>
</g>
<line class="st1" x1="104" y1="239" x2="104" y2="208"/>
<line class="st1" x1="104" y1="0" x2="104" y2="-20"/>
<g>
	<g>
		<path class="st0" d="M288.8,200.9c1.9,0,1.9-3,0-3C286.8,197.9,286.8,200.9,288.8,200.9L288.8,200.9z"/>
	</g>
</g>
</svg>
