<?xml version="1.0" encoding="utf-8"?>
<!-- Generator: Adobe Illustrator 22.1.0, SVG Export Plug-In . SVG Version: 6.00 Build 0)  -->
<svg version="1.1" id="Layer_1" xmlns="http://www.w3.org/2000/svg" xmlns:xlink="http://www.w3.org/1999/xlink" x="0px" y="0px"
	 viewBox="0 0 1080 1440" style="enable-background:new 0 0 1080 1440;" xml:space="preserve">
<style type="text/css">
	.st0{fill:#363636;}
	.st1{fill:#2A2A2A;}
	.st2{fill:#060606;}
	.st3{fill:#DDDDDD;}
	.st4{fill:#FEFEFE;}
	.st5{fill:#EFEFEF;}
	.st6{fill:#646464;}
	.st7{fill:#C4C4C4;}
	.st8{fill:#F4F4F4;}
	.st9{fill:#13A89D;}
	.st10{fill:none;}
	.st11{font-family:'RobotoSlab-Regular';}
	.st12{font-size:26px;}
	.st13{fill:#FFFFFF;}
	.st14{font-family:'RobotoSlab-Bold';}
	.st15{font-size:16px;}
	.st16{font-size:36px;}
	.st17{font-size:17px;}
	.st18{font-family:'RobotoSlab-Thin';}
	.st19{font-size:14px;}
	.st20{font-size:11px;}
	.st21{font-family:'JosefinSlab-Regular';}
	.st22{font-size:35px;}
	.st23{letter-spacing:3;}
	.st24{fill:#8E8E8E;}
	.st25{fill:#696969;}
	.st26{fill:#575757;}
	.st27{fill:#828282;}
	.st28{fill:#5E5E5E;}
	.st29{fill:#4D4D4D;}
	.st30{fill:#959595;}
	.st31{fill:#B4B4B4;}
	.st32{fill:#C0C0C0;}
	.st33{fill:#B9B9B9;}
	.st34{fill:#C6C6C6;}
	.st35{fill:#C2C2C2;}
	.st36{fill:#2F2F2F;}
	.st37{fill:#A5A5A5;}
	.st38{fill:#A6A6A6;}
	.st39{fill:#282828;}
</style>
<path d="M1070-23"/>
<path class="st0" d="M614.7,762c0,0,2.6,4.1,3.4,5.2s2.4,8.2,3.2,9.3c0.8,1.1-5.3,6.2-1.9,14.9c3.5,8.7,0,0,0,0l4.2-11.5l-2.4-8.2
	l-1.2-4.1l-3.1-4.4L614.7,762"/>
<g>
	<path class="st1" d="M519.5,708.1c0,0,7.4-4.8,8.8-6.6s8.2-1.2,8.2-1.2s38.4,40.7,32.1,43.8c-6.3,3.1-19-4.7-31.3-13.1
		C525,722.5,518.3,708.7,519.5,708.1z"/>
	<path class="st2" d="M525.5,714.1c0,0,0.2-6.7,4.7-6.2c0,0,7.9,12.9,10.8,14.2c3,1.3,4.2-1.7,8,1.2s18.6,18.1,18.3,19.9
		s-24.1-13.5-31.9-17.5C527.7,721.6,525.5,714.1,525.5,714.1z"/>
</g>
<path class="st3" d="M531.2,776.5l7.6,0l1-285.7c0-2.1-1.7-3.8-3.8-3.8l0,0c-2.1,0-3.8,1.7-3.8,3.8L531.2,776.5z"/>
<path d="M251.9,77.5V65.4h60.6v12.1l-22.2,1.8v79.3h112.8V79.3l-22.2-1.8V65.4h22.2h16.2h22.2v12.1l-22.2,1.8V250l22.2,1.8v12h-60.6
	v-12l22.2-1.8v-77.5H290.3V250l22.2,1.8v12h-60.6v-12l22.2-1.8V79.3L251.9,77.5z"/>
<path d="M824.7,1207.1l-0.8-0.3L750.4,1381h-11.3l-73.4-173.4l-0.8,0.1l1.5,85.9v73.6l22.1,1.8v12h-60.5v-12l22.1-1.8V1197
	l-22.1-1.8v-12.1h22.1h21.3l72.7,174.2h0.8l73-174.2h43.6v12.1l-22.1,1.8v170.3l22.1,1.8v12h-60.5v-12l22.1-1.8v-73.6L824.7,1207.1z
	"/>
<path d="M333.8,1201.3c21.2,0,37.5,4.6,48.9,13.9c11.4,9.2,17.1,22.6,17.1,40.1c0,10.3-3,19.6-9.1,27.9
	c-6.1,8.2-14.6,14.2-25.7,17.9c12.2,3.1,21,8.6,26.4,16.5c5.4,7.9,8.1,17.9,8.1,30v18.1c0,7,1.1,12.1,3.3,15.5
	c2.2,3.4,5.5,5.2,9.9,5.4l6.7,0.4v12.1H409c-9.6,0-16.3-3.3-20.1-9.8c-3.8-6.5-5.7-14.5-5.7-23.9v-17.5c0-12-3.8-21.4-11.5-28.5
	c-7.7-7-18.3-10.7-32-10.9h-49.7v76.9l22.1,1.9v11.8h-60.5v-11.8l22.1-1.9v-170.1l-22.1-1.9v-12H333.8z M289.9,1294.5h42
	c17.8,0,30.9-3.6,39.1-10.7c8.2-7.2,12.4-16.7,12.4-28.7c0-12.7-4.1-22.5-12.4-29.5c-8.2-7-20.7-10.5-37.2-10.5h-43.9V1294.5z"/>
<path d="M570.2,896.9l11.5,40.9l78.6-31l-9.3-27.9C651,878.9,577.1,886.8,570.2,896.9z"/>
<path class="st4" d="M641.2,881.5l0.5-0.1c0,0,0-0.9-0.1-2.6l0-0.1l-2.6-36.5l-6.6-1c-0.9,0.4-1.6,1.1-1.9,2.1
	C629,848.3,638.4,873.9,641.2,881.5z"/>
<path class="st5" d="M570.1,896.5l69.2-14.7c-1.4-4.3-7.5-23.2-8.5-27.5c-1.2-4.7-1-13.1-1-13.6c-0.5,0.5-1.1,1-1.5,1.7
	c-0.4,0.6-0.8,1.2-1.2,1.9c-2.7,5.5-51.7,16.9-60.4,23c-8.7,6.2-9,11.8-3.7,17.8S570.1,896.5,570.1,896.5z"/>
<path class="st6" d="M642,883.6l9.1-2.9L639,841c0,0-0.1,0-0.2,0c2,6.9,2.6,30,2.8,37.8l-2.6-36.5l-6.6-1c-0.9,0.4-1.6,1.1-1.9,2.1
	c-1.4,5,7.9,30.7,10.7,38.2C641.6,882.7,641.9,883.5,642,883.6L642,883.6z"/>
<path class="st7" d="M632.3,841.2l6.6,1l2.6,36.5c-0.2-7.8-0.8-30.8-2.8-37.8c-0.4-1.2-0.7-1.9-1.2-2c-2.4-0.5-5.4-0.3-7.8,1.8
	c0,0,0,0,0,0c0,0,0,0,0,0c0,0.5-0.2,8.9,1,13.6c1.1,4.3,7.1,23.1,8.5,27.5l1.8-0.4c-2.8-7.5-12.1-33.2-10.7-38.2
	C630.7,842.2,631.4,841.6,632.3,841.2z"/>
<path class="st6" d="M639.6,882.8l2.3,0.8l0,0l-0.3-4.7l0-0.1l-0.4-21.3l-0.4-7.2l-1.5-7.8c-0.2-0.8-0.9-1.4-1.8-1.4l-5.2,0.1
	c-0.9,0.4-1.6,1.1-1.9,2.1c-1.4,5,7.9,30.7,10.7,38.2l-1.8,0.4C639.5,882.4,639.6,882.8,639.6,882.8z"/>
<path class="st8" d="M628.1,842.5c0,0-23.8,6.4-31.2,8.6c-6.4,2-25.6,9-30.6,13s-6.1,7.7-6.5,11.6s38.3-6.9,39-6.4
	s26.9-19.8,26.9-19.8L628.1,842.5z"/>
<path class="st9" d="M164.5,220.5v999h751.3v-999H164.5z M540.2,914c-80.6,0-146-65.4-146-146c0-80.6,65.4-146,146-146
	c80.6,0,146,65.4,146,146C686.2,848.6,620.8,914,540.2,914z"/>
<g>
	<rect x="419.2" y="466.4" class="st10" width="242" height="30.1"/>
	<text transform="matrix(1 0 0 1 419.1855 488.6426)" class="st11 st12">Festival Highlights </text>
</g>
<rect x="647" y="242.5" class="st10" width="245" height="161.5"/>
<text transform="matrix(1 0 0 1 657.4766 254.6445)"><tspan x="0" y="0" class="st13 st14 st15">An eight-week summer season </tspan><tspan x="25.9" y="19.2" class="st13 st14 st15">of daily orchestral classical </tspan><tspan x="24" y="38.4" class="st13 st14 st15">music concerts at the Royal </tspan><tspan x="83" y="57.6" class="st13 st14 st15">Albert Hall, London. </tspan><tspan x="15.1" y="76.8" class="st13 st14 st15">July 18 – September 13, 2014, </tspan><tspan x="100.9" y="96" class="st13 st14 st15">Royal Albert Hall, </tspan><tspan x="5.8" y="115.2" class="st13 st14 st15">Knightsbridge. Booking opens </tspan><tspan x="177.5" y="134.4" class="st13 st14 st15">May 17. </tspan></text>
<g>
	<rect x="215.8" y="242.5" class="st10" width="200.2" height="223.5"/>
	<text transform="matrix(1 0 0 1 215.7588 269.8789)"><tspan x="0" y="0" class="st13 st14 st16">The </tspan><tspan x="0" y="43.2" class="st13 st14 st16">Henry </tspan><tspan x="0" y="86.4" class="st13 st14 st16">Wood </tspan><tspan x="0" y="129.6" class="st13 st14 st16">Promenade </tspan><tspan x="0" y="172.8" class="st13 st14 st16">Concerts.</tspan></text>
</g>
<path d="M238,114.2v41.8h-14.8l-1.3-27.9h-56.5v170.7l22.8,1.8v12h-62.4v-12l22.8-1.8V128.1H92.1L91,156.1H76v-41.8H238z"/>
<path d="M581.1,216.5h-81.3v82.3h93.7l1.2-29.7h14.4v43.5H461.3v-12l22.2-1.8V128.1l-22.2-1.8v-12.1h22.2h124.9v43.6H594l-1.2-29.7
	h-93.1v74.5h81.3V216.5z"/>
<path d="M161.6,1125c20.7,0,36.8,5.3,48.2,15.8c11.4,10.6,17.1,24.5,17.1,41.9c0,17.6-5.7,31.6-17.1,42.1
	c-11.4,10.5-27.4,15.8-48.2,15.8h-45.1v68.5l22.1,1.8v12H78.2v-12l22.1-1.8v-170.3l-22.1-1.8V1125h22.1H161.6z M116.5,1226.8h45.1
	c16.3,0,28.6-4.1,36.8-12.4c8.2-8.3,12.3-18.7,12.3-31.3c0-12.7-4.1-23.2-12.2-31.6c-8.2-8.4-20.4-12.6-36.8-12.6h-45.1V1226.8z"/>
<rect x="200" y="825.5" class="st10" width="319" height="303.5"/>
<text transform="matrix(1 0 0 1 283.4434 838.4033)"><tspan x="0" y="0" class="st13 st14 st17">Proms in the </tspan><tspan x="-29.5" y="20.4" class="st13 st14 st17">Park – Hyde Park</tspan><tspan x="-22.5" y="39.2" class="st13 st18 st19">Saturday 13 September</tspan><tspan x="20.3" y="60" class="st13 st18 st19">3.00pm – c10.30pm </tspan><tspan x="-0.5" y="80.8" class="st13 st18 st19">Hyde Park Various Venues</tspan><tspan x="-57.7" y="114" class="st13 st11 st20">Join in the Last Night of the Proms celebrations in Hyde </tspan><tspan x="-76.3" y="127.2" class="st13 st11 st20">Park, hosted by Proms in the Park stalwart Sir Terry Wogan. </tspan><tspan x="-82" y="140.4" class="st13 st11 st20">The open-air concert features a host of musical stars, includ</tspan><tspan x="231.3" y="140.4" class="st13 st11 st20">-</tspan><tspan x="-75.2" y="153.6" class="st13 st11 st20">ing Proms in the Park favourites the BBC Concert Orchestra </tspan><tspan x="-60" y="166.8" class="st13 st11 st20">under the baton of Richard Balcombe, and special guests </tspan><tspan x="-78.4" y="180" class="st13 st11 st20">Pumeza Matshikiza, Rufus Wainwright and legendary Earth, </tspan><tspan x="-74" y="193.2" class="st13 st11 st20">Wind &amp; Fire. Presenter Tony Blackburn joins us again to get </tspan><tspan x="-65.1" y="206.4" class="st13 st11 st20">this year’s party under way, introducing a range of artists, </tspan><tspan x="-74.6" y="219.6" class="st13 st11 st20">including the Dhol Foundation and the cast of 20th Century </tspan><tspan x="207.7" y="232.8" class="st13 st11 st20">Boys. </tspan></text>
<rect x="554" y="524.3" class="st10" width="339" height="300.7"/>
<text transform="matrix(1 0 0 1 554 537.2559)"><tspan x="0" y="0" class="st13 st14 st17">Prom 21: The John Wilson  </tspan><tspan x="0" y="20.4" class="st13 st14 st17">Orchestra – Kiss  </tspan><tspan x="0" y="40.8" class="st13 st14 st17">Me, Kate</tspan><tspan x="0" y="59.6" class="st13 st18 st19">Saturday 2 August</tspan><tspan x="52.9" y="80.4" class="st13 st18 st19">7.30pm – c10.30pm </tspan><tspan x="87.4" y="101.2" class="st13 st18 st19">Royal Albert Hall</tspan><tspan x="119.4" y="134.4" class="st13 st11 st20">Take a journey through London with </tspan><tspan x="128.1" y="147.6" class="st13 st11 st20">some of your favourite CBeebies charac</tspan><tspan x="333.9" y="147.6" class="st13 st11 st20">-</tspan><tspan x="135" y="160.8" class="st13 st11 st20">ters and explore the sounds of the </tspan><tspan x="140.6" y="174" class="st13 st11 st20">orchestra, as well as the everyday </tspan><tspan x="144.8" y="187.2" class="st13 st11 st20">sounds around us. This morning’s </tspan><tspan x="147.9" y="200.4" class="st13 st11 st20">adventure combines live music </tspan><tspan x="149.8" y="213.6" class="st13 st11 st20">from the BBC Philharmonic and </tspan><tspan x="150.6" y="226.8" class="st13 st11 st20">video action on screens around the </tspan><tspan x="150.7" y="240" class="st13 st11 st20">hall. The next generation of classi</tspan><tspan x="327.4" y="240" class="st13 st11 st20">-</tspan><tspan x="150" y="253.2" class="st13 st11 st20">cal music fans starts here.</tspan></text>
<rect x="538.5" y="870.6" transform="matrix(1.155982e-03 -1 1 1.155982e-03 -283.4207 1765.3798)" class="st10" width="406.9" height="308"/>
<text transform="matrix(1 0 0 1 695.4951 833.8721)"><tspan x="0" y="0" class="st13 st14 st17">Prom 64: Sir Simon </tspan><tspan x="-8.7" y="20.4" class="st13 st14 st17">Rattle and the </tspan><tspan x="-21.1" y="40.8" class="st13 st14 st17">Berliner </tspan><tspan x="-38.2" y="61.2" class="st13 st14 st17">Philharmoniker</tspan><tspan x="-63.3" y="80" class="st13 st18 st19">Berliner Philharmoniker</tspan><tspan x="-106.4" y="100.8" class="st13 st18 st19">Friday 5 September</tspan><tspan x="-107.4" y="121.6" class="st13 st18 st19">6.30pm – c8.35pm </tspan><tspan x="-107.4" y="142.4" class="st13 st18 st19">Royal Albert Hall </tspan><tspan x="-107.5" y="175.6" class="st13 st11 st20">An all-Russian programme inspired by dance opens with </tspan><tspan x="-107.5" y="188.8" class="st13 st11 st20">Rachmaninov’s Symphonic Dances – the composer’s </tspan><tspan x="-107.5" y="202" class="st13 st11 st20">blazing ‘final spark’ and, for many, his finest orchestral </tspan><tspan x="-107.5" y="215.2" class="st13 st11 st20">work. Embracing jazz, plainchant and the waltz, this </tspan><tspan x="-107.5" y="228.4" class="st13 st11 st20">mercurial piece is a showcase of dramatic skill. The popu</tspan><tspan x="191.9" y="228.4" class="st13 st11 st20">-</tspan><tspan x="-107.5" y="241.6" class="st13 st11 st20">lar tradition of Promming (standing in the Arena or Gallery </tspan><tspan x="-107.6" y="254.8" class="st13 st11 st20">areas of the Royal Albert Hall) is central to the unique and </tspan><tspan x="-107.6" y="268" class="st13 st11 st20">informal atmosphere of the BBC Proms. Part of the Proms </tspan><tspan x="-107.6" y="281.2" class="st13 st11 st20">audience has always stood in the Arena, directly in front of </tspan><tspan x="-107.6" y="294.4" class="st13 st11 st20">the orchestra, and many consider this the best position in </tspan><tspan x="-107.6" y="307.6" class="st13 st11 st20">the hall. However, you can also stand high up in the </tspan><tspan x="-107.6" y="320.8" class="st13 st11 st20">Gallery and just let the sound drift up to you</tspan><tspan x="121.2" y="320.8" class="st13 st21 st20">.</tspan></text>
<rect x="195" y="524.4" class="st10" width="324" height="284.6"/>
<text transform="matrix(1 0 0 1 450.8174 537.3726)"><tspan x="0" y="0" class="st13 st14 st17">Prom 13: </tspan><tspan x="-5.3" y="20.4" class="st13 st14 st17">CBeebies </tspan><tspan x="24.7" y="40.8" class="st13 st14 st17">Prom</tspan><tspan x="-31.5" y="59.6" class="st13 st18 st19">Sunday 27 July</tspan><tspan x="-103.3" y="80.4" class="st13 st18 st19">11.00am – c11.50am </tspan><tspan x="-121.2" y="101.2" class="st13 st18 st19">Royal Albert Hall </tspan><tspan x="-236.8" y="134.4" class="st13 st11 st20">The appearances of John Wilson and </tspan><tspan x="-247.5" y="147.6" class="st13 st11 st20">his orchestra have become one of the </tspan><tspan x="-224.5" y="160.8" class="st13 st11 st20">annual highlights of the Proms. </tspan><tspan x="-249.1" y="174" class="st13 st11 st20">Following the enormous success of </tspan><tspan x="-249.2" y="187.2" class="st13 st11 st20">the staged performance of My Fair </tspan><tspan x="-248.5" y="200.4" class="st13 st11 st20">Lady in 2012, John Wilson returns </tspan><tspan x="-226.7" y="213.6" class="st13 st11 st20">to perform Cole Porter’s Tony </tspan><tspan x="-248.4" y="226.8" class="st13 st11 st20">Award-winning musical Kiss Me, </tspan><tspan x="-245.2" y="240" class="st13 st11 st20">Kate in its original 1948 arrange</tspan><tspan x="-79.4" y="240" class="st13 st11 st20">-</tspan><tspan x="-235.7" y="253.2" class="st13 st11 st20">ments. He is joined by a cast of </tspan><tspan x="-244.5" y="266.4" class="st13 st11 st20">leading singers in this irreverent </tspan></text>
<path class="st10" d="M698.7,768c0,87.5-71,158.5-158.5,158.5c-87.5,0-158.5-71-158.5-158.5c0-87.5,71-158.5,158.5-158.5
	C627.7,609.5,698.7,680.5,698.7,768z"/>
<path d="M1030.4,1187.9H1017l-2.3-28c-4.9-6.2-11.6-11-20-14.5c-8.4-3.5-18.3-5.2-29.6-5.2c-16.3,0-29,3.5-38.1,10.6
	s-13.7,15.9-13.7,26.4c0,10,4.1,18.3,12.3,24.9c8.2,6.7,22.4,12.5,42.6,17.6c21.3,5.4,37.5,12.8,48.6,22
	c11.1,9.2,16.6,21.4,16.6,36.6c0,15.8-6.4,28.3-19.3,37.6c-12.9,9.3-29.3,14-49.3,14c-14.1,0-27.2-2.5-39.3-7.5
	c-12.1-5-22-12.1-29.7-21.3v-34.7h13.3l2.3,28.9c6,6.8,13.6,12,23,15.5c9.3,3.5,19.5,5.3,30.4,5.3c15.6,0,28.2-3.4,37.8-10.3
	c9.6-6.9,14.5-16,14.5-27.3c0-10.8-4-19.6-12.1-26.4c-8.1-6.8-22.1-12.9-42.1-18.1c-21.7-5.4-38-12.5-49.2-21.2
	s-16.7-20.4-16.7-35.2c0-15.1,6.3-27.4,19-37c12.7-9.5,29-14.3,49.1-14.3c14.4,0,27.2,2.5,38.5,7.5c11.3,5,20.2,11.7,26.7,20.2
	V1187.9z"/>
<path class="st3" d="M535.5,518L535.5,518c-1.9,0-3.5,1.6-3.5,3.5v150c0,1.9,1.6,3.5,3.5,3.5l0,0c1.9,0,3.5-1.6,3.5-3.5v-150
	C539,519.6,537.4,518,535.5,518z"/>
<g>
	<rect x="891.3" y="75.2" class="st10" width="168.7" height="31.5"/>
	<text transform="matrix(1 0 0 1 891.293 101.8549)" class="st11 st22 st23">presents</text>
</g>
<g id="BBC">
	<path d="M1009.9,69.7c0-0.6,0-1,0-1.4c0-14.7,0-29.3,0-44c0-1.2,0.4-1.4,1.5-1.4c15.7,0,31.4,0,47,0c1.1,0,1.4,0.4,1.4,1.4
		c0,14.7,0,29.3,0,44c0,1.1-0.3,1.4-1.4,1.4c-15.7,0-31.4,0-47.1,0C1010.8,69.7,1010.5,69.7,1009.9,69.7z M1049.8,54.4
		c-0.4,0.1-0.6,0.1-0.8,0.2c-2,0.9-3.9,2-6,2.7c-4.6,1.5-9.2,1.5-13.5-0.8c-4.3-2.2-6.8-7.2-5.7-12.3c0.5-2.5,1.5-4.6,3.4-6.3
		c5.1-4.5,11-4.3,17-2.3c1.7,0.6,3.4,1.5,5.2,2.3c0-1.9,0-3.8,0-5.7c0-0.2-0.4-0.5-0.6-0.6c-2.4-0.7-4.8-1.6-7.2-2.1
		c-5.1-1.1-10.1-0.6-14.8,1.8c-7.9,4.1-11.7,13.7-8,21.6c2.7,5.9,7.5,9,13.6,10.3c2.7,0.5,5.5,0.5,8.2,0.1c3-0.4,5.9-1.2,8.6-2.6
		c0.3-0.1,0.6-0.5,0.6-0.8C1049.8,58.2,1049.8,56.4,1049.8,54.4z"/>
	<path d="M919.8,69.7c-7.9,0-15.7,0-23.6,0c-1,0-1.3-0.2-1.3-1.3c0-14.7,0-29.5,0-44.2c0-1,0.3-1.3,1.3-1.3c15.7,0,31.5,0,47.2,0
		c1,0,1.4,0.3,1.4,1.4c0,14.7,0,29.4,0,44.1c0,1.1-0.3,1.4-1.4,1.4C935.5,69.7,927.6,69.7,919.8,69.7z M925.7,45.1
		c4.3-2.6,5.2-7.3,2.9-11c-2-3.2-5.1-4.5-8.7-4.6c-3.6-0.1-7.2,0-10.8,0c-0.9,0-1.1,0.2-1.1,1.1c0,10.5,0,21,0,31.5
		c0,0.9,0.3,1.2,1.2,1.2c3.7,0,7.5,0.1,11.2-0.1c2.2-0.1,4.4-0.5,6.5-1.2c3.8-1.3,6.2-4.7,6.1-8.4c-0.1-3.8-2.2-6.4-6-8
		C926.5,45.6,926.2,45.4,925.7,45.1z"/>
	<path d="M952.4,69.7c0-0.6-0.1-1-0.1-1.4c0-14.5,0-29.1,0-43.6c0-1.7,0-1.7,1.7-1.7c15.6,0,31.2,0,46.8,0c1.1,0,1.5,0.3,1.5,1.4
		c0,14.7,0,29.3,0,44c0,1-0.2,1.4-1.3,1.4c-15.8,0-31.6,0-47.4,0C953.2,69.7,952.9,69.7,952.4,69.7z M965.5,29.6
		c0,0.3-0.1,0.6-0.1,0.9c0,10.6,0,21.2,0,31.8c0,0.9,0.3,1.1,1.2,1.1c3.8,0,7.6,0,11.4,0c2.5,0,4.8-0.5,7.1-1.5
		c3.9-1.8,6-5.9,5.1-9.7c-0.8-3.2-2.9-5.1-5.7-6.3c-0.4-0.2-0.7-0.4-1.1-0.6c4.1-2.5,4.8-6.4,3.3-10c-1.4-3.4-4.3-5.2-7.8-5.4
		C974.5,29.4,970.1,29.6,965.5,29.6z"/>
	<path d="M913.9,53.4c0-1.2,0-2.3,0-3.5c0-0.8,0.2-1.2,1.1-1.1c2.4,0.1,4.8,0,7.2,0.3c1.7,0.2,3.4,0.8,4.1,2.7
		c0.9,2.2,0,4.5-2.1,5.4c-1.1,0.4-2.2,0.7-3.3,0.8c-1.9,0.1-3.9,0-5.8,0.1c-0.8,0-1.1-0.3-1.1-1.1C913.9,55.7,913.9,54.5,913.9,53.4
		z"/>
	<path d="M913.9,39.1c0-1.1,0-2.2,0-3.4c0-0.3,0.4-1,0.6-1c2.3,0.1,4.6,0.1,6.8,0.5c1.5,0.3,2.2,1.6,2.3,3.2c0.1,1.8-0.5,3.3-2.2,4
		c-2.1,1-4.5,1-6.8,0.9c-0.2,0-0.6-0.6-0.7-1C913.9,41.4,913.9,40.3,913.9,39.1z"/>
	<path d="M971.4,53.3c0-1.2,0-2.3,0-3.5c0-0.7,0.2-1.1,1-1.1c2.4,0.1,4.8,0.1,7.2,0.3c1.6,0.1,3.1,0.8,4,2.2
		c1.3,2.1,0.5,4.9-1.8,5.8c-1.1,0.5-2.4,0.7-3.6,0.8c-1.9,0.1-3.8,0-5.7,0.1c-0.9,0-1.1-0.4-1.1-1.2
		C971.5,55.6,971.4,54.4,971.4,53.3C971.4,53.3,971.4,53.3,971.4,53.3z"/>
	<path d="M971.4,39c0-1.1,0-2.2,0-3.3c0-0.7,0.2-1.1,1-1.1c1.7,0.1,3.3,0,5,0.2c2.3,0.2,3.6,1.6,3.7,3.6c0.1,2.4-1.2,4.2-3.5,4.6
		c-1.7,0.3-3.4,0.3-5.1,0.4c-0.7,0.1-1.1-0.2-1-1C971.5,41.4,971.5,40.2,971.4,39C971.5,39,971.4,39,971.4,39z"/>
</g>
<path class="st24" d="M493.7,792.5c0.8-1.1,3.4-1.4,6.1-1.4c-1.1-0.1-2.3-0.4-3.6-1.2c-2.4-1.4-3.7-1.4-4.5-1
	c0.5-1.2,0.8-2.8-0.6-3.9l-3.8-2.9c-0.2,2.9-0.7,6.4-1,8.6C485.7,795.2,491.8,795,493.7,792.5z M507,792.7c-0.1-0.1-0.1-0.2-0.2-0.4
	c-0.1-0.1-0.2-0.3-0.3-0.4c0-0.1-0.1-0.1-0.1-0.1c-0.1-0.2-0.3-0.5-0.4-0.8c-0.4-0.8-0.9-1.7-1.5-2.7c-0.5,1.5-2.2,2.9-4.6,2.8
	C503.3,791.2,506.6,792,507,792.7z M486.7,808.2c1.3,0.2,2.6,0.5,3.6,1c2.8,1.4,12,6.4,16.9,8.9c1.3,0.7,2.3,1.1,2.8,1.3
	c0.1,0.1,0.4,0.1,0.6,0.2c0,0,0,0,0,0c0.7,0.2,1.8,0.6,3.1,1c0.2,0.1,0.5,0.2,0.8,0.2c0.5,0.2,1.1,0.3,1.6,0.5
	c4.1,1.3,9.3,3,13.1,4.2c2.2,0.7,3.9,1.3,4.8,1.5l0,0c0.2,0.1,0.3,0.1,0.4,0.1c0.9,0.3,2.1,0.9,3.4,1.6c2.1,1.1,4.5,2.5,5.6,3.4
	c0.4,0.3,1.6,0.7,3.2,1.1c1.2,0.3,2.6,0.7,4.1,1.1c5.3,1.4,11.8,3.3,13.8,6.1c1.2,1.6,2.7,4.9,4.1,8.3c2,5,3.9,10.5,4.6,12.5
	c0.2,0.5,0.3,0.8,0.3,0.8s0.6-0.2,1.6-0.7l0,0c1.6-0.6,4.1-1.7,7.3-3.1c0.1,0,0.1-0.1,0.2-0.1c4.6-1.9,10.5-4.4,16.6-6.9
	c0,0,0,0,0,0c14.4-6,29.6-12.3,30.2-12.4c0.1,0,0.1,0,0.2,0c-0.1-0.2-0.1-0.3-0.2-0.5c-4.3-7.2-10-50-12.8-57.9c0,0,0-0.1-0.1-0.1
	c1.1,0.7,3.8,2.2,6.9,3.3l-4.9-16.9c-2-1.6-3.8-3.2-4.5-5.4c-0.9-2.7-4.6-9.4-4.6-9.4l-5.4-12l-3.4-7.5c-1.7-1.3-13.2-6.4-21.6-10.8
	c-2.9-1.5-5.3-2.9-7-4c-0.6-0.4-1.1-0.8-1.4-1.2c-3.9-3.9-7.4-9.6-13-10c-5.1-0.3-15.7-10.5-19.3-10c-0.4,0-0.7,0.2-0.9,0.5
	c-2.4,3.1-6.5,9.8-1.4,14.7s31.7,24.2,32.1,27.5s-5.5,4.6-8.8,1.2c-3.3-3.5-15.9-10.1-18-9.8c-2.2,0.3-6-7.6-9.6-9.3
	c-3.6-1.8-12.4-13.4-14.9-15.3c-2.5-1.9-5.7-13.2-8.8-15.6c-0.4-0.3-1-0.9-1.6-1.5c-3.8-4.3-10.4-14.2-12.8-14.4
	c-2.8-0.2-6,1.4-4.7,6.2c1.2,4.9,1.5,11,1.8,13.1c0.3,2.2,4.1,13.9,4.5,17.2c0,0.4,0.1,0.8,0.3,1.2c0.1,0.4,0.3,0.9,0.5,1.4
	c1.6,4.1,5.4,10.2,8,13c2.4,2.5,0.9,2.6-0.2,4c-0.1,0.1-0.1,0.2-0.2,0.3c0,0.1-0.1,0.1-0.1,0.2c0,0,0,0,0,0c-0.2,0.4-0.4,1-0.4,1.7
	c0,3.9-12.6,14-13,19.6c-0.2,2.4-0.1,4.8,0.3,7.1c0.1,0.3,0.1,0.6,0.2,0.9c0,0,0,0,0,0c0.5,2.4,1.5,4.7,3,6.9c0,0,0,0,0,0
	c0.3,0.4,0.6,0.8,0.9,1.2c1.2,1.6,2.6,3.7,3.8,5.9c-0.5-0.1-0.9-0.2-1.4-0.2c-4.7-0.7-10.7-0.5-13.5,2.5c0,0,0,0,0,0
	c-0.2,0.2-0.3,0.4-0.5,0.5c-1.8,2.2-3.9,5.9-5.5,10c0,0.1-0.1,0.2-0.1,0.3c-0.2,0.4-0.3,0.9-0.5,1.3c-0.1,0.3-0.2,0.7-0.3,1
	c0,0.1-0.1,0.2-0.1,0.4c-0.5,1.6-1,3.1-1.3,4.6c-0.1,0.5-0.2,1-0.3,1.4c-0.1,0.3-0.1,0.6-0.1,0.9c0,0.2,0,0.3-0.1,0.5
	c-0.1,0.9-0.1,1.7-0.1,2.5c0,0,0,0.1,0,0.1c0,0,0,0,0,0c0,0.1,0,0.2,0,0.3c0.1,1,0.3,1.9,0.6,2.6c0,0,0,0,0,0c0.2,0.4,0.4,0.7,0.6,1
	c0.1,0.1,0.1,0.1,0.2,0.2c0.2,0.2,0.4,0.4,0.6,0.5C480,807.5,483.6,807.7,486.7,808.2z M499.8,791.1c-1.1-0.1-2.3-0.4-3.6-1.2
	c-2.4-1.4-3.7-1.4-4.5-1c0.5-1.2,0.8-2.8-0.6-3.9l-3.8-2.9c-0.7-0.5-1.1-0.9-1.1-0.9s1.5,1.9,2.2,2.3c0.7,0.4,0.7-0.7,1.8-0.1
	c0,0,0,0,0,0c1.8,0.9,3.8,1.7,4.8,1.6c1.1-0.2,3.7-2.2,5.8-4.3c0.3-0.3,0.7-0.7,0.9-1c1.5,3,2.6,5.6,3,6.8c0.2,0.6,0.2,1.2,0,1.7
	c-0.5,1.5-2.2,2.9-4.6,2.8C499.9,791.1,499.8,791.1,499.8,791.1z"/>
<path class="st25" d="M555.5,808.7c0,0,1.8-7.5-2.6-10.8c-4.3-3.3,2.9-7.6-1.9-10.3c-4.8-2.7-9.9,5.2-7-6.3
	c2.9-11.5,7.9-7.7,10.3-18.7c2.4-10.9,7.5-14.9,7.5-14.9s-12.2-12.3-11.6-11.8s-0.7,11.8-7.2,17.9c-6.6,6.3-13.4,3-17.1-1.4
	c-3.7-4.4-2.3-8-6.9-12.1s-11.8-12.6-12.7-15.3c-0.9-2.7,5-4-0.6-8.3c-5.6-4.3-8.1-6.1-9.2-4.1c-1.1,2.1,0.1,7.4,3.9,10.6
	s5.2,5.2,3.3,7.7c0,0,1.1-0.4,3.6,1.8c5,4.2,12.7,14.1,14.6,17.6c2.9,5.2-0.8,10,4.8,14.4c5.5,4.3,9.7,10.5,8.8,11.7
	c-0.9,1.2-11,1.5-16.6,1.1c-5.6-0.4-6.9-2.1-6.1,2.3c0.8,4.3,4.6-1.5,9.8,4.5s10.2,9.8,14.6,13.1s3.5-3.1,6.6-0.3
	c3.2,2.9,6.9,5.7,9.5,8.7C556.1,808.7,555.5,808.7,555.5,808.7z"/>
<path class="st26" d="M490.1,783.5c1.8,0.9,3.8,1.7,4.8,1.6c1.1-0.2,3.7-2.2,5.8-4.3l-1.4-3.5c0,0.1,0,0.3-0.1,0.6
	c-0.2,1.4-0.6,4.5-1.8,5.1C496.1,783.7,491.4,783.5,490.1,783.5z"/>
<path class="st27" d="M563.8,824.4c6.8,5.2,19.7,16.8,25.1,23.2l2-3.7l16.6-30.3c0,0-11.4-18.2-20.1-31.7
	c-3.8-5.9-3.2-13.9-4.8-16.1c-5.4-7.1-0.3-14.6-8.6-17c-7.6-2.3-12.2-9.4-17.1,3.6c-5,12.9-12.5,15.1-12.2,21.2
	c0.3,6.1-8.3,8.2-5,15.6c3.2,7.4,11.1,9.7,11.1,13.6c0,3.9-1.6-4.1-5.9-7.5c-4.3-3.3,5,12.7,8.8,15.6s-24.2-8-24.2-8
	s17.6,8.9,17.1,13.5C546,820.6,555.1,817.7,563.8,824.4z"/>
<path class="st28" d="M545.3,832.6c0,0,0.8-7-2.7-7.7c-3.4-0.7-4.4,4.5-7.7,1c-3.3-3.5-10.7-5.3-4.8-6.6s8.9,3.8,11.9,1.2
	c3-2.6-4-8.9-4-8.9s-5.3-2.1-5-3.8s2.9,5.2,4.1,1.1c1.1-4.1-3.5-5.7-3.5-5.7s-22.7-5.9-23.5-2.4c-0.9,3.5,3,7.4,3,7.4
	s7.6,2.9,10.7,5.3c3.1,2.4,4.6,5.5-2.8,3.7s-9.8-2.6-8.9,0.1c0.9,2.7,1.3,3.4,1.3,3.4s23.2,11.3,28.2,11.2
	C546.6,831.8,544.8,833.2,545.3,832.6z"/>
<path class="st29" d="M578.9,771c0,0,1.1-16.9-0.9-19.4c-2-2.5-12.6-4.3-11.2-6.2s16.6,5.5,18,7.5c1.4,2,1.2,4.9,3.7,6.8
	c2.5,1.9,6.2,0.8,5.3,6s-0.2,10.6-5.3,10.7c-5,0.1-5,4-7.8-0.1C578,772.3,578.9,771,578.9,771z"/>
<path class="st30" d="M599.6,851.3C599.6,851.3,599.6,851.3,599.6,851.3c0.7-0.1,22.1-3.7,28.6-8.8c0.7-0.5,1.2-1.1,1.5-1.7
	c0,0,0,0,0,0c0,0,0,0,0,0c0.3-0.6,0.4-1.3,0.2-1.9c-0.1-0.2,1.4-1.7,1.3-1.8c-4.3-7.2-8-47.4-10.8-55.4c0,0-3.5-1.3-3.6-1.3
	c-0.3-0.8-0.8-1.7-1.5-2.7c0,0,0,0,0,0c-5.8-8.6-23.6-21.9-23.8-19.4c0,0.6-0.1,1.6-0.1,2.9c0,0.9-0.1,1.9-0.1,3c0,0,0,0,0,0.1
	c0,0.2,0,0.4,0,0.6c-0.1,3.7-0.3,8-0.5,11.1c-0.1,1.4-0.2,2.5-0.3,3.2c-0.2,1.2-1.4,2.1-3.2,2.9c-3.3,1.4-8.5,2.1-12.8,2.6
	c-6.6,0.9-18.2,9.7-15.6,12.7c2.6,3,13.8,15.4,13.8,15.4c7.5-2.1,16.7,7.8,21.1,16.1c4.5,8.3-7.8,12.8-7.8,12.8
	c1.7,0.6,3.3,1.5,4.8,2.4C596.1,847,599.6,851.3,599.6,851.3z"/>
<path class="st31" d="M550.6,736.4c0,0,0.6,15.5-6.3,18.1c-6.9,2.6-17.9,4.1-19.5-4.1c-1.6-8.1,1.2-8-1.1-16.6
	c-2.3-8.6-12.5-18.4-7.4-17.4c5.2,1,5.9,10.4,15.5,11.9S551,736.4,550.6,736.4z"/>
<path class="st32" d="M529.8,778.7c0,0,13.2-2.1,8.8-5.5c-4.3-3.3-20.6-24.2-20.3-25.9c0.3-1.7-5.7-5.4-6.6,0.9
	c-0.8,6.2-3.5,11.1-1.2,15.8c2.3,4.7,8.2,11.2,12.4,13.4C527.1,779.6,529.8,778.7,529.8,778.7z"/>
<path class="st33" d="M513.3,801.6c0,0,16.8,5,16.5,2.8c-0.3-2.2-14.7-18.1-15.6-20.8s-3.3-16.3-3.7-19.6c-0.4-3.3-6-11.5-9-12.7
	c-3-1.3,0.5-4.5,1.2-8c0.7-3.4-6.1,0.3-7.8,3.8s-4.9,9.5-3.9,13s14.9,31.8,17.5,34.8C511.1,798,513.3,801.6,513.3,801.6z"/>
<path class="st34" d="M490.3,809.1c3.6,1.8,18.1,8,20.4,8.8c0.7,0.2,2.4,2.4,5.5,3.4l4.7-4c1.6-0.8-4.8-6.6-6.9-10.2
	c-2.1-3.6-6.2-12.7-7-14.3c0,0,0,0,0-0.1c0,0,0,0,0,0c-0.4-0.7-3.7-1.5-7-1.6c-0.1,0-0.1,0-0.2,0c-2.7-0.1-5.2,0.3-6.1,1.4
	c-1.9,2.5-8,2.7-7.5-1.8c0.2-2.2,0.8-5.7,1-8.6c0-0.1,0-0.1,0-0.2c0.2-3,0.1-5.5-1.1-5.3c-0.6,0.1-1.4,0-2.3-0.2c0,0,0,0,0,0
	c-4.9,5.2-11.9,23.4-7.4,27.8C480.8,808.7,486.8,807.4,490.3,809.1z"/>
<path class="st26" d="M506.8,688.6c0,0-3.1-16.2-12.9-14.9"/>
<path class="st35" d="M497.5,700.5c0,0,2.7-0.9,4.5,0.5s6.7,4.1,6.1-0.3s-8.2-15.1-9.1-17.7c-0.9-2.7-5.1-8.8-7.5-5.7
	c-2.4,3.1-0.8,2.3,0.6,8.3c1.4,6,4.6,9.4,4.3,11.1C496.1,698.5,493,700,497.5,700.5z"/>
<path class="st26" d="M547.2,800.9c0,0-3.7-6.8-7.4-9.6c-3.7-2.8-15.6-7.9-18.7-10.3c-3.1-2.4-8.7-2.7-8.7-2.7s-0.9,6.2,3.9,8.9
	c4.8,2.7,12,6.2,12,6.2s9.4,3.2,13.4,4.3C545.8,798.9,547.2,800.9,547.2,800.9z"/>
<path class="st36" d="M587,773.3c-3-1.3-5.5,0.7-4.3-3.3c1.1-4.1,1.5-5.8,4.1-6.7c2.7-0.9,4.7-3.9,4.7,0.8
	C591.4,768.8,587,773.3,587,773.3z"/>
<path class="st37" d="M571,716.3c-3.9-3.9-7.4-9.6-13-10c-5.1-0.3-15.7-10.5-19.3-10c-5.5,7.7-0.3,6.2,6.9,8.9
	c7.6,2.9,3.1,2.4,8,10.1c4.9,7.7,5,3.8,12.5,1.7c2.1-0.6,4.2-0.3,6.4,0.5C571.8,717.1,571.4,716.7,571,716.3z"/>
<path class="st30" d="M616.3,779.9c0,0,0.2,0.1,0.6,0.3c1.1,0.7,3.8,2.2,6.9,3.3l-4.9-16.9c-2-1.6-3.8-3.2-4.5-5.4
	c-0.9-2.7-4.6-9.4-4.6-9.4l-5.4-12l-3.4-7.5c-1.7-1.3-13.2-6.4-21.6-10.8c2.8,2,5.2,4.1,6.9,5.1c4.2,2.3,4.1,5,2.7,11.9
	c-1.3,6.9,2.3,4.7,5.7,9.3c3.4,4.6,1.7,4.2,5.9,2.6c3.5-1.4,12,20,14.8,27.3c0,0,0,0,0,0C616,779.1,616.3,779.9,616.3,779.9z"/>
<g>
	<path class="st26" d="M550.5,762.6c-0.6-0.5,3.4-12.2,0.6-12.3c-2.8-0.2-3.9,3.9-7.7,4.9s-4.8,2.3-7,1.5c-1.4-0.5-3.3-0.9-3.3-0.9
		c-1.1,0.1-10.9-5-10.9-9s-3.4-8.5-5.9-10.4c-2.5-1.9-9.9-7.6-10.9-10.3c-0.9-2.7,2-1.4,1.3-6.9c-0.7-5.5-10.1-8.7-10.6-8.1
		s-1.6,4.7,1.2,8.8c2.8,4.1,5.6,4.3,6,7.6s0.4,3.3,0.4,3.3s0.5-0.6,3,1.3s11.4,14.6,12.2,16.2c0.8,1.6,9.6,17.7,12.7,20
		c3.1,2.4,4.5,4.4,5.6,4.3c1.1-0.1,2.2-4.2,3.9-3.9c1.7,0.3,4.7-6.2,6.9-6.5C550.4,762,550.5,762.6,550.5,762.6z"/>
	<path class="st26" d="M515.2,782.4c0,0-3.7-2.8-2.7-4.1c0.9-1.2,1.8-1.6,4.1-1.2c3.8,0.7,0.7,0,4.1,0.6c3.4,0.7,4.5,0.5,6.9,1.3
		s4.4-0.6,6.2,0.8s1.2,4.9-1.6,4.7s-5.6-0.4-3,2.6c2.6,3,1.5,3.1,4.5,4.4c3,1.3,1.7,0.3,5.3,2.1c3.6,1.8,10.7,13.1,12.4,13.4
		c1.7,0.3,4.4-0.6,3,1.3s-3.1,1.5-3.8,1.1c-0.6-0.5-11.3-9.6-12.6-6.7c-1.3,3,4.2,6.1,5.1,8.8c0.9,2.7-2.6,5.9-1.3,6.9
		c1.2,0.9,5.6,4.3,5.7,5.4c0.1,1.1-7.2-3.5-8.4-4.4s-3.4-4.6-6.4-1.9c-3,2.6-3.6,2.2-2.2,4.2c1.4,2,4.3,3.3,4.3,3.3l6.1-0.3l4.5,4.4
		c0,0,1.4,2,0.8,1.6c-0.6-0.5-9.2-2.1-9.2-2.1l-4.2-2.2c0,0-18.4-4.2-20.9-6.1c-2.5-1.9-23.5-9.1-26.5-10.4c-3-1.3-11.5-2.9-11-7.4
		c0.5-4.5,1.6-0.8,1.6-0.8s3.8-1.1,7.3,0.7c3.6,1.8,14.8,6.4,19,8.6c4.2,2.2,6.8,5.2,10.3,5.9c3.4,0.7,9.2,2.1,7.2-0.4
		c-2-2.5-2.2-3.6-4.8-6.6c-2.6-3-1.8-4.4-3.1-6.4c-2.3-3.3-5.5-12.6-4.7-11.5c1.4,2,6.7,5.2,6.7,5.2s9.5,0.2,8-2.7
		c-0.4-0.9-2.9-4.4-4.3-6.4S515.2,782.4,515.2,782.4z"/>
</g>
<path class="st0" d="M618.3,785.8c-0.1-1.1,3.7-8.7,3.7-8.7l-3-10.4c-2-1.6-3.8-3.2-4.5-5.4c-0.9-2.7-4.6-9.4-4.6-9.4l-5.4-12
	l-3.4-7.5c2.3,1.8,11.3,24.7,17.1,31.4c0.4,0.5,0.9,0.9,1.3,1.2c3.2,2.5,5,11,5.8,19c0.6,5.9,0.6,11.5,0.3,14.1
	c-0.8,6.2,10.6,41.5,10.6,41.5c-3.1,0.4-5.2,2.8-6.3,3.1c-0.1-0.2,0.1-4.3,0-4.5"/>
<path class="st38" d="M573.8,861.5l1.7-0.1l0,0l6.1-0.5l2.7-0.2l-1.4-2.2l-0.1-0.1l-8.6-14.1c-3.4,0.8-4.9,2.5-5.3,4.6
	c-0.9,4.7,3.6,11.1,4.6,12.5C573.7,861.4,573.8,861.5,573.8,861.5z"/>
<path class="st24" d="M573.8,862c0,0,0.6-0.2,1.6-0.7l0,0l6.1-0.5l1.3-2.4l0.1-0.2l4.9-9c-7.8-6.7-26.6-25.4-30.7-24
	c-5.3,1.8-6.2,9.1-6.2,9.1c5.3,1.4,11.8,3.3,13.8,6.1c1.2,1.6,2.7,4.9,4.1,8.3c-0.9,4.7,3.6,11.1,4.6,12.5
	C573.7,861.7,573.8,862,573.8,862z"/>
<path class="st39" d="M543,819.3c0,0,10.8-2.6,14.5,0.3s21.4,18.3,22.3,21c0.9,2.7,0.8,2.8-3.1,0.2c-3.9-2.6-16.2-14.9-21.2-14.8
	C550.6,826.1,543,823.2,543,819.3z"/>
<path class="st27" d="M596.7,852.5l-8-4.7c0,0-2.3-0.8-3.1-2.4c-0.8-1.6-0.6-4.4-0.6-4.4l7.5,1.8c0,0,7.1,7.4,7.7,7.9s-3,2.6-3,2.6
	L596.7,852.5z"/>
<path class="st26" d="M540.9,792.3c0,0,8.1,5.7,9.5,9s0.9,1.4,0.9,1.4s-5.8-6.7-9.7-4.4s-12-2-6.9,7.4s13.1,2.5,16,5.8
	c2.9,3.3,12.1,14,12.1,14s-17.4-1.2-23.8-8.6c-6.4-7.3-10-17-10-17s-6.1-1.8,1.6-4.9S540.9,792.3,540.9,792.3z"/>
<path class="st26" d="M540.1,793.7c0,0,11.6,5.6,14.7,13.8c3.1,8.2,0,0,0,0l-3.6,1.2l-14.6-11.9L540.1,793.7z"/>
<path d="M613.1,1229.4c0,29.7-7.9,53.9-23.8,72.5c-15.9,18.6-36.5,27.9-61.8,27.9c-25,0-45.3-9.3-60.9-28
	c-15.6-18.7-23.4-42.8-23.4-72.4v-2.6c0-29.6,7.8-53.8,23.4-72.5c15.6-18.7,35.9-28.1,60.9-28.1c25.4,0,46,9.4,61.9,28.1
	c15.9,18.7,23.8,42.9,23.8,72.5V1229.4z M596.7,1226.6c0-25.6-6.3-46.4-18.8-62.2c-12.5-15.9-29.4-23.8-50.7-23.8
	c-20.9,0-37.5,7.9-49.7,23.8c-12.2,15.9-18.3,36.6-18.3,62.2v2.9c0,25.8,6.1,46.7,18.3,62.5c12.2,15.9,28.8,23.8,49.7,23.8
	c21.5,0,38.4-7.9,50.8-23.7c12.4-15.8,18.5-36.7,18.5-62.6V1226.6z"/>
</svg>
